<?xml version="1.0" encoding="utf-8"?>
<!-- Generator: Adobe Illustrator 27.5.0, SVG Export Plug-In . SVG Version: 6.00 Build 0)  -->
<svg version="1.1" xmlns="http://www.w3.org/2000/svg" xmlns:xlink="http://www.w3.org/1999/xlink" x="0px" y="0px"
	 viewBox="0 0 500 500" style="enable-background:new 0 0 500 500;" xml:space="preserve">
<g id="Background_Complete">
	<rect x="416.779" y="398.494" style="fill:#EBEBEB;" width="33.122" height="0.25"/>
	<rect x="322.527" y="401.208" style="fill:#EBEBEB;" width="8.693" height="0.25"/>
	<rect x="396.586" y="389.208" style="fill:#EBEBEB;" width="19.192" height="0.25"/>
	<rect x="52.459" y="390.888" style="fill:#EBEBEB;" width="43.193" height="0.25"/>
	<rect x="104.556" y="390.888" style="fill:#EBEBEB;" width="6.333" height="0.25"/>
	<rect x="131.471" y="395.111" style="fill:#EBEBEB;" width="93.676" height="0.25"/>
	<g>
		<path style="fill:#EBEBEB;" d="M238.401,337.8H45.302c-3.147,0-5.708-2.561-5.708-5.708V60.66c0-3.147,2.561-5.708,5.708-5.708
			h193.099c3.146,0,5.707,2.561,5.707,5.708v271.432C244.108,335.239,241.547,337.8,238.401,337.8z M45.302,55.203
			c-3.01,0-5.458,2.448-5.458,5.458v271.432c0,3.01,2.448,5.458,5.458,5.458h193.099c3.009,0,5.457-2.448,5.457-5.458V60.66
			c0-3.009-2.448-5.458-5.457-5.458H45.302z"/>
		<path style="fill:#EBEBEB;" d="M454.698,337.8H261.599c-3.146,0-5.707-2.561-5.707-5.708V60.66c0-3.147,2.561-5.708,5.707-5.708
			h193.099c3.148,0,5.708,2.561,5.708,5.708v271.432C460.406,335.239,457.845,337.8,454.698,337.8z M261.599,55.203
			c-3.009,0-5.457,2.448-5.457,5.458v271.432c0,3.01,2.448,5.458,5.457,5.458h193.099c3.01,0,5.458-2.448,5.458-5.458V60.66
			c0-3.009-2.448-5.458-5.458-5.458H261.599z"/>
	</g>
	<rect y="382.398" style="fill:#EBEBEB;" width="500" height="0.25"/>
	<g>
		<g>
			<g>
				<g>
					<path style="fill:#EBEBEB;" d="M103.332,267.149c-8.119-2.509-12.174-3.763-20.275-6.268
						c9.045,0.476,13.574,0.715,22.643,1.198c-4.966-8.638-7.187-12.892-11.12-21.177c5.657,6.448,8.617,9.728,14.802,16.365
						c1.716-9.982,3.867-18.682,7.053-28.293c-1.497,8.045-2.144,16.739-1.936,24.914c0.169,0.031,0.253,0.046,0.422,0.076
						c6.713-7.651,14.023-14.772,21.809-21.325c-7.422,7.986-14.066,16.696-19.75,26.001c8.437-3.182,16.95-6.216,25.497-9.088
						c-8.582,4.694-16.957,9.515-25.314,14.597c8.376,2.668,12.57,4.004,20.969,6.678c-8.682-0.526-13.018-0.788-21.681-1.309
						c4.563,5.345,6.934,8.042,11.855,13.465c-6.096-4.024-9.106-6.03-15.053-10.023c0.832,6.553,1.426,9.875,2.978,16.559
						c-2.965-6.761-4.275-10.123-6.559-16.761c-4.255,20.361-3.152,40.098,0.963,60.338c-2.04-0.368-3.06-0.552-5.099-0.921
						c-2.98-20.752-2.209-39.333,2.391-59.732c-5.136,5.299-7.536,7.991-11.991,13.412c3.085-5.846,4.81-8.75,8.615-14.465
						c-7.302,1.601-10.916,2.41-18.069,4.041C93.043,272.081,96.413,270.421,103.332,267.149z"/>
				</g>
				<g>
					<path style="fill:#E6E6E6;" d="M96.14,274.184c7.508-3.981,11.258-5.969,18.749-9.942c-8.798,2.156-13.202,3.236-22.021,5.403
						c3.267-9.413,4.655-14.007,6.973-22.88c-4.354,7.39-6.649,11.165-11.488,18.841c-3.549-9.487-7.286-17.632-12.21-26.48
						c2.972,7.624,5.23,16.044,6.552,24.115c-0.16,0.061-0.24,0.092-0.401,0.154c-8.023-6.263-16.534-11.895-25.406-16.88
						c8.782,6.46,16.935,13.777,24.256,21.857c-8.882-1.551-17.812-2.943-26.745-4.17c9.308,3.009,18.435,6.183,27.594,9.616
						c-7.731,4.184-11.602,6.279-19.354,10.474c8.431-2.137,12.642-3.204,21.056-5.332c-3.486,6.103-5.311,9.194-9.133,15.441
						c5.238-5.091,7.821-7.623,12.918-12.656c0.405,6.593,0.442,9.968,0.165,16.824c1.651-7.196,2.31-10.743,3.316-17.691
						c7.98,19.209,10.581,38.805,10.316,59.457c1.935-0.743,2.903-1.114,4.838-1.856c-0.945-20.943-5.171-39.054-13.497-58.236
						c6.035,4.247,8.895,6.444,14.283,10.938c-4.122-5.168-6.358-7.698-11.163-12.603c7.473,0.21,11.174,0.33,18.506,0.598
						C107.169,277.108,103.548,276.106,96.14,274.184z"/>
				</g>
				<g>
					<path style="fill:#E6E6E6;" d="M114.478,285.342c-5.473-2.902-8.207-4.352-13.667-7.247c6.413,1.572,9.624,2.359,16.053,3.938
						c-2.382-6.862-3.393-10.211-5.083-16.679c3.174,5.388,4.847,8.139,8.374,13.735c2.587-6.916,5.312-12.854,8.901-19.303
						c-2.167,5.558-3.813,11.696-4.776,17.579c0.117,0.045,0.175,0.067,0.292,0.112c5.848-4.566,12.053-8.671,18.521-12.305
						c-6.402,4.709-12.345,10.043-17.682,15.934c6.475-1.131,12.985-2.145,19.496-3.04c-6.785,2.194-13.439,4.507-20.115,7.01
						c5.636,3.05,8.457,4.577,14.109,7.635c-6.146-1.558-9.216-2.335-15.349-3.887c2.541,4.449,3.872,6.702,6.658,11.256
						c-3.818-3.711-5.701-5.557-9.417-9.226c-0.296,4.806-0.322,7.266-0.12,12.264c-1.203-5.245-1.684-7.831-2.417-12.896
						c-5.818,14.003-7.713,28.288-7.52,43.343c-1.411-0.541-2.116-0.812-3.526-1.353c0.689-15.267,3.77-28.469,9.839-42.453
						c-4.399,3.096-6.484,4.697-10.412,7.974c3.005-3.767,4.635-5.612,8.138-9.188c-5.447,0.153-8.146,0.241-13.491,0.436
						C106.438,287.473,109.078,286.743,114.478,285.342z"/>
				</g>
			</g>
			<g>
				<polygon style="fill:#E0E0E0;" points="119.776,382.398 86.828,382.398 83.603,329.915 123.001,329.915 				"/>
				<polygon style="fill:#F5F5F5;" points="125.553,332.623 80.725,332.623 79.919,325.642 126.36,325.642 				"/>
			</g>
		</g>
		<g>
			<g>
				<rect x="71.611" y="101.39" style="fill:#F5F5F5;" width="37.065" height="48.154"/>
				<rect x="74.463" y="105.094" style="fill:#EBEBEB;" width="31.362" height="40.745"/>
				<rect x="76.425" y="107.644" style="fill:#FAFAFA;" width="27.437" height="35.646"/>
			</g>
			<g>
				<rect x="105.825" y="156.007" style="fill:#EBEBEB;" width="37.065" height="31.594"/>
				<rect x="108.676" y="158.437" style="fill:#F5F5F5;" width="31.362" height="26.733"/>
				<rect x="110.639" y="160.11" style="fill:#FAFAFA;" width="27.437" height="23.387"/>
			</g>
			<g>
				
					<rect x="118.877" y="117.517" transform="matrix(-1.836970e-16 1 -1 -1.836970e-16 265.6968 2.4532)" style="fill:#E6E6E6;" width="25.49" height="33.116"/>
				
					<rect x="120.838" y="120.065" transform="matrix(-1.836970e-16 1 -1 -1.836970e-16 265.6968 2.4532)" style="fill:#F0F0F0;" width="21.568" height="28.021"/>
				
					<rect x="122.188" y="121.818" transform="matrix(-1.836970e-16 1 -1 -1.836970e-16 265.6968 2.4532)" style="fill:#EBEBEB;" width="18.869" height="24.514"/>
			</g>
		</g>
		<g>
			<g>
				<g>
					<g>
						<path style="fill:#E0E0E0;" d="M409.183,330.831h25.25c4.537,0,8.215-3.678,8.215-8.215v-36.914c0-0.828-0.672-1.5-1.5-1.5
							l0,0c-0.829,0-1.5,0.672-1.5,1.5v36.914c0,2.88-2.335,5.215-5.215,5.215h-25.25V330.831z"/>
					</g>
				</g>
				<g>
					<path style="fill:#E0E0E0;" d="M401.963,366.212v-34.377l-2.018-0.636c-2.271-0.715-3.815-2.821-3.815-5.202h19.047
						c0,2.381-1.544,4.486-3.815,5.202l-2.018,0.636v34.377l15.839,7.119v3l-19.53-6.827l-19.529,6.827v-3L401.963,366.212z"/>
				</g>
				<g>
					<path style="fill:#F0F0F0;" d="M380.746,327.828h49.815c2.984,0,5.404-2.419,5.404-5.404l0,0c0-2.984-2.419-5.404-5.404-5.404
						h-49.815c-2.984,0-5.404,2.419-5.404,5.404l0,0C375.342,325.409,377.762,327.828,380.746,327.828z"/>
				</g>
				<g>
					<path style="fill:#EBEBEB;" d="M439.348,298.693l2.688-38.438c0.208-2.977-2.037-5.559-5.014-5.768l0,0
						c-2.977-0.208-5.56,2.036-5.768,5.014l-2.688,38.438c-0.208,2.977,2.037,5.56,5.014,5.768l0,0
						C436.557,303.914,439.14,301.67,439.348,298.693z"/>
				</g>
				<g>
					<path style="fill:#E0E0E0;" d="M421.766,378.438c0,1.887,1.53,3.417,3.417,3.417c1.887,0,3.417-1.53,3.417-3.417
						c0-1.887-1.53-3.417-3.417-3.417C423.296,375.021,421.766,376.551,421.766,378.438z"/>
				</g>
				<g>
					<path style="fill:#E0E0E0;" d="M382.707,378.438c0,1.887,1.53,3.417,3.417,3.417c1.887,0,3.417-1.53,3.417-3.417
						c0-1.887-1.53-3.417-3.417-3.417C384.237,375.021,382.707,376.551,382.707,378.438z"/>
				</g>
			</g>
			<g>
				<g>
					<g>
						<polygon style="fill:#EBEBEB;" points="301.87,382.979 321.376,382.979 323.376,345.997 299.87,345.997 						"/>
					</g>
					<g>
						<polygon style="fill:#E0E0E0;" points="316.876,382.979 324.876,382.979 324.876,381.331 316.876,380.331 						"/>
					</g>
					<g>
						<path style="fill:#E0E0E0;" d="M299.87,345.997h23.506v-0.025c0-1.643-1.332-2.975-2.975-2.975h-17.556
							c-1.643,0-2.975,1.332-2.975,2.975V345.997z"/>
					</g>
				</g>
				<g>
					<g>
						<polygon style="fill:#E0E0E0;" points="341.876,287.073 373.087,287.073 373.087,283.331 341.876,281.331 						"/>
					</g>
					<g>
						<g>
							
								<rect x="295.709" y="290.884" transform="matrix(-1 -1.224647e-16 1.224647e-16 -1 683.7511 594.5479)" style="fill:#F0F0F0;" width="92.333" height="12.78"/>
						</g>
						<g>
							
								<rect x="276.57" y="287.073" transform="matrix(-1 -1.224647e-16 1.224647e-16 -1 683.4229 581.7676)" style="fill:#FAFAFA;" width="130.283" height="7.621"/>
						</g>
						<g>
							<polygon style="fill:#E6E6E6;" points="288.673,382.979 282.786,382.979 292.971,294.694 299.87,294.694 							"/>
						</g>
						<g>
							<polygon style="fill:#E6E6E6;" points="383.553,294.694 390.452,294.694 400.637,382.979 394.75,382.979 							"/>
						</g>
					</g>
					<g>
						<g>
							<path style="fill:#E0E0E0;" d="M310.264,285.174c2.667-13.247,5.333-26.495,8-39.742c0.381-1.891,3.273-1.091,2.893,0.798
								c-2.539,12.614-5.079,25.229-7.618,37.843c5.501,0,11.001,0,16.502,0c1.931,0,1.934,3,0,3c-6.11,0-12.22,0-18.331,0
								C310.681,287.073,310.074,286.119,310.264,285.174z"/>
						</g>
						<g>
							<path style="fill:#FAFAFA;" d="M328.937,274.514L328.937,274.514l-5.139-73.487l0,0c-3.856,2.761-6.004,7.326-5.673,12.057
								l3.516,50.28C321.972,268.095,324.734,272.316,328.937,274.514z"/>
						</g>
					</g>
				</g>
			</g>
		</g>
	</g>
</g>
<g id="Background_Simple" style="display:none;">
	<g style="display:inline;">
		<path style="fill:#407BFF;" d="M181.614,109.866c-27.625,6.177-54.45,18.005-75.242,37.215
			c-35.579,32.872-49.676,87.099-34.61,133.137c5.246,16.029,14.155,31.481,28.088,40.986c12.926,8.818,29.17,11.781,44.795,10.924
			c15.624-0.857,30.822-5.274,45.684-10.172c11.237-3.703,22.735-7.751,34.549-7.102c13.895,0.764,26.497,7.9,38.931,14.148
			c23.825,11.97,49.005,21.242,74.903,27.581c20.459,5.008,43.333,7.862,61.525-2.754c16.693-9.741,25.685-28.844,30.126-47.654
			c14.198-60.128-11.791-127.709-62.618-162.832c-26.12-18.05-56.86-27.483-87.245-35.526
			C249.05,99.492,213.282,102.785,181.614,109.866z"/>
		<path style="opacity:0.8;fill:#FFFFFF;" d="M181.614,109.866c-27.625,6.177-54.45,18.005-75.242,37.215
			c-35.579,32.872-49.676,87.099-34.61,133.137c5.246,16.029,14.155,31.481,28.088,40.986c12.926,8.818,29.17,11.781,44.795,10.924
			c15.624-0.857,30.822-5.274,45.684-10.172c11.237-3.703,22.735-7.751,34.549-7.102c13.895,0.764,26.497,7.9,38.931,14.148
			c23.825,11.97,49.005,21.242,74.903,27.581c20.459,5.008,43.333,7.862,61.525-2.754c16.693-9.741,25.685-28.844,30.126-47.654
			c14.198-60.128-11.791-127.709-62.618-162.832c-26.12-18.05-56.86-27.483-87.245-35.526
			C249.05,99.492,213.282,102.785,181.614,109.866z"/>
	</g>
</g>
<g id="Shadow">
	<ellipse id="_x3C_Path_x3E__359_" style="fill:#F5F5F5;" cx="250" cy="415.693" rx="193.889" ry="11.323"/>
</g>
<g id="Mail_Page">
	<g>
		<g>
			<g>
				<rect x="227.948" y="86.185" style="fill:#FFFFFF;" width="203.23" height="220.382"/>
				<g>
					<path style="fill:#407BFF;" d="M429.065,89.981v216.382h-199.23V89.981H429.065 M431.065,87.981h-203.23v220.382h203.23V87.981
						L431.065,87.981z"/>
				</g>
				<g>
					
						<line style="fill:none;stroke:#407BFF;stroke-linecap:round;stroke-linejoin:round;stroke-miterlimit:10;" x1="271.694" y1="314.366" x2="281.346" y2="314.366"/>
					
						<line style="fill:none;stroke:#407BFF;stroke-linecap:round;stroke-linejoin:round;stroke-miterlimit:10;" x1="263.832" y1="314.366" x2="268.44" y2="314.366"/>
					
						<line style="fill:none;stroke:#407BFF;stroke-linecap:round;stroke-linejoin:round;stroke-miterlimit:10;" x1="227.835" y1="314.366" x2="259.515" y2="314.366"/>
				</g>
				<g>
					
						<line style="fill:none;stroke:#407BFF;stroke-linecap:round;stroke-linejoin:round;stroke-miterlimit:10;" x1="390.345" y1="73.981" x2="385.736" y2="73.981"/>
					
						<line style="fill:none;stroke:#407BFF;stroke-linecap:round;stroke-linejoin:round;stroke-miterlimit:10;" x1="426.342" y1="73.981" x2="394.662" y2="73.981"/>
				</g>
				<g>
					<path style="fill:#407BFF;" d="M431.065,98.565h-203.23V84.779c0-2.761,2.238-4.999,4.999-4.999h193.233
						c2.761,0,4.999,2.238,4.999,4.999V98.565z"/>
					<rect x="235.595" y="85.601" style="fill:#FFFFFF;" width="29.446" height="6.195"/>
				</g>
				<g>
					<g>
						<rect x="380.223" y="91.324" style="fill:#FFFFFF;" width="6.577" height="1"/>
					</g>
					<g>
						<g>
							
								<rect x="419.558" y="85.895" transform="matrix(0.7071 -0.7071 0.7071 0.7071 59.9825 323.1667)" style="fill:#FFFFFF;" width="1" height="6.577"/>
						</g>
						<g>
							
								<rect x="416.77" y="88.684" transform="matrix(0.7071 -0.7071 0.7071 0.7071 59.9699 323.1474)" style="fill:#FFFFFF;" width="6.577" height="1"/>
						</g>
					</g>
					<g>
						<g>
							
								<rect x="399.266" y="88.841" transform="matrix(0.7071 -0.7071 0.7071 0.7071 54.797 310.9742)" style="fill:#FFFFFF;" width="7.023" height="1"/>
						</g>
						<g>
							<polygon style="fill:#FFFFFF;" points="401.711,92.609 399.509,92.609 399.509,90.408 							"/>
						</g>
						<g>
							<polygon style="fill:#FFFFFF;" points="403.676,86.241 405.877,86.241 405.877,88.442 							"/>
						</g>
					</g>
				</g>
				<g>
					<rect x="236.553" y="111.013" style="fill:#E0E0E0;" width="186.02" height="1"/>
				</g>
				<g>
					<rect x="236.553" y="124.217" style="fill:#E0E0E0;" width="186.02" height="1"/>
				</g>
				<path style="fill:#407BFF;" d="M275.755,301.128h-39.771c-0.688,0-1.245-0.557-1.245-1.245v-12.566
					c0-0.687,0.557-1.245,1.245-1.245h39.771c0.688,0,1.245,0.557,1.245,1.245v12.566C277,300.571,276.443,301.128,275.755,301.128z
					"/>
				<g>
					<rect x="236.335" y="116.128" style="fill:#263238;" width="74.446" height="3.987"/>
					<rect x="236.335" y="116.128" style="fill:#E0E0E0;" width="74.446" height="3.987"/>
				</g>
				<rect x="236.335" y="129.904" style="fill:#E0E0E0;" width="29.605" height="3.987"/>
				<g>
					<rect x="278.318" y="145.531" style="fill:#E0E0E0;" width="130.684" height="3.987"/>
					<rect x="248.437" y="152.232" style="fill:#E0E0E0;" width="160.565" height="3.987"/>
					<rect x="248.437" y="158.932" style="fill:#E0E0E0;" width="47.632" height="3.987"/>
				</g>
				<g>
					<rect x="236.335" y="103.046" style="fill:#263238;" width="20.166" height="3.987"/>
					<rect x="236.335" y="103.046" style="fill:#E0E0E0;" width="20.166" height="3.987"/>
				</g>
				<g>
					<g>
						<polygon style="fill:#FFFFFF;" points="274.423,292.236 271.694,294.965 268.965,292.236 						"/>
					</g>
					<g>
						<rect x="265.44" y="288.31" style="fill:#FFFFFF;" width="1" height="10.58"/>
					</g>
				</g>
			</g>
			<g>
				<g>
					<rect x="283.441" y="292.878" style="fill:#263238;" width="6.71" height="6.71"/>
					<rect x="292.843" y="292.878" style="fill:#263238;" width="6.71" height="6.71"/>
					<rect x="302.245" y="292.878" style="fill:#263238;" width="6.71" height="6.71"/>
					<rect x="311.646" y="292.878" style="fill:#263238;" width="6.71" height="6.71"/>
					<rect x="321.048" y="292.878" style="fill:#263238;" width="6.71" height="6.71"/>
					<rect x="330.45" y="292.878" style="fill:#263238;" width="6.71" height="6.71"/>
					<rect x="339.852" y="292.878" style="fill:#263238;" width="6.71" height="6.71"/>
					<rect x="349.253" y="292.878" style="fill:#263238;" width="6.71" height="6.71"/>
				</g>
				<g>
					<rect x="283.441" y="292.878" style="opacity:0.5;fill:#FFFFFF;" width="6.71" height="6.71"/>
					<rect x="292.843" y="292.878" style="opacity:0.5;fill:#FFFFFF;" width="6.71" height="6.71"/>
					<rect x="302.245" y="292.878" style="opacity:0.5;fill:#FFFFFF;" width="6.71" height="6.71"/>
					<rect x="311.646" y="292.878" style="opacity:0.5;fill:#FFFFFF;" width="6.71" height="6.71"/>
					<rect x="321.048" y="292.878" style="opacity:0.5;fill:#FFFFFF;" width="6.71" height="6.71"/>
					<rect x="330.45" y="292.878" style="opacity:0.5;fill:#FFFFFF;" width="6.71" height="6.71"/>
					<rect x="339.852" y="292.878" style="opacity:0.5;fill:#FFFFFF;" width="6.71" height="6.71"/>
					<rect x="349.253" y="292.878" style="opacity:0.5;fill:#FFFFFF;" width="6.71" height="6.71"/>
				</g>
			</g>
			<g>
				<rect x="416.201" y="292.878" style="fill:#263238;" width="6.71" height="6.71"/>
				<rect x="416.201" y="292.878" style="opacity:0.5;fill:#FFFFFF;" width="6.71" height="6.71"/>
			</g>
			<g>
				<path style="fill:#263238;" d="M409.001,293.129c0,0.622-0.504,1.126-1.126,1.126c-0.622,0-1.126-0.504-1.126-1.126
					s0.504-1.126,1.126-1.126C408.497,292.003,409.001,292.507,409.001,293.129z"/>
				<path style="fill:#263238;" d="M409.001,296.522c0,0.622-0.504,1.126-1.126,1.126c-0.622,0-1.126-0.504-1.126-1.126
					s0.504-1.126,1.126-1.126C408.497,295.397,409.001,295.901,409.001,296.522z"/>
				<path style="fill:#263238;" d="M409.001,299.916c0,0.622-0.504,1.126-1.126,1.126c-0.622,0-1.126-0.504-1.126-1.126
					s0.504-1.126,1.126-1.126C408.497,298.79,409.001,299.294,409.001,299.916z"/>
				<g style="opacity:0.5;">
					<path style="fill:#FFFFFF;" d="M409.001,293.129c0,0.622-0.504,1.126-1.126,1.126c-0.622,0-1.126-0.504-1.126-1.126
						s0.504-1.126,1.126-1.126C408.497,292.003,409.001,292.507,409.001,293.129z"/>
					<path style="fill:#FFFFFF;" d="M409.001,296.522c0,0.622-0.504,1.126-1.126,1.126c-0.622,0-1.126-0.504-1.126-1.126
						s0.504-1.126,1.126-1.126C408.497,295.397,409.001,295.901,409.001,296.522z"/>
					<path style="fill:#FFFFFF;" d="M409.001,299.916c0,0.622-0.504,1.126-1.126,1.126c-0.622,0-1.126-0.504-1.126-1.126
						s0.504-1.126,1.126-1.126C408.497,298.79,409.001,299.294,409.001,299.916z"/>
				</g>
			</g>
		</g>
		<g>
			<path style="fill:#FFFFFF;" d="M239.795,295.911l0.452-1.004c0.485,0.354,1.209,0.601,1.9,0.601c0.789,0,1.11-0.263,1.11-0.616
				c0-1.078-3.348-0.338-3.348-2.476c0-0.979,0.79-1.793,2.426-1.793c0.724,0,1.464,0.172,1.999,0.51l-0.411,1.012
				c-0.535-0.305-1.085-0.453-1.595-0.453c-0.79,0-1.094,0.297-1.094,0.658c0,1.061,3.348,0.329,3.348,2.443
				c0,0.962-0.798,1.784-2.443,1.784C241.226,296.577,240.305,296.306,239.795,295.911z"/>
			<path style="fill:#FFFFFF;" d="M249.717,294.628h-3.348c0.124,0.551,0.592,0.889,1.267,0.889c0.469,0,0.806-0.141,1.11-0.428
				l0.683,0.74c-0.411,0.469-1.028,0.715-1.826,0.715c-1.53,0-2.525-0.962-2.525-2.277c0-1.324,1.012-2.278,2.36-2.278
				c1.299,0,2.303,0.871,2.303,2.294C249.742,294.381,249.726,294.522,249.717,294.628z M246.354,293.88h2.179
				c-0.09-0.56-0.51-0.922-1.085-0.922C246.863,292.958,246.444,293.313,246.354,293.88z"/>
			<path style="fill:#FFFFFF;" d="M255.124,293.945v2.533h-1.283v-2.336c0-0.716-0.329-1.044-0.896-1.044
				c-0.617,0-1.061,0.378-1.061,1.192v2.188h-1.283v-4.425h1.225v0.519c0.346-0.379,0.864-0.584,1.464-0.584
				C254.335,291.988,255.124,292.597,255.124,293.945z"/>
			<path style="fill:#FFFFFF;" d="M260.844,290.376v6.102h-1.225v-0.51c-0.321,0.387-0.79,0.575-1.381,0.575
				c-1.251,0-2.212-0.888-2.212-2.277c0-1.391,0.962-2.278,2.212-2.278c0.542,0,1.003,0.173,1.324,0.534v-2.146H260.844z
				 M259.586,294.267c0-0.766-0.494-1.226-1.127-1.226c-0.641,0-1.135,0.46-1.135,1.226c0,0.765,0.494,1.225,1.135,1.225
				C259.092,295.491,259.586,295.031,259.586,294.267z"/>
		</g>
		<g>
			<path style="fill:#263238;" d="M398.504,104.898c0-1.43,1.098-2.453,2.575-2.453c0.82,0,1.504,0.298,1.951,0.84l-0.705,0.65
				c-0.318-0.366-0.718-0.556-1.192-0.556c-0.888,0-1.518,0.623-1.518,1.518c0,0.894,0.63,1.518,1.518,1.518
				c0.474,0,0.874-0.19,1.192-0.563l0.705,0.65c-0.447,0.549-1.131,0.847-1.958,0.847
				C399.602,107.351,398.504,106.328,398.504,104.898z"/>
			<path style="fill:#263238;" d="M403.296,105.447c0-1.098,0.847-1.877,2.033-1.877c0.765,0,1.368,0.332,1.632,0.928l-0.82,0.441
				c-0.196-0.346-0.487-0.502-0.819-0.502c-0.535,0-0.956,0.373-0.956,1.01c0,0.637,0.42,1.009,0.956,1.009
				c0.332,0,0.623-0.149,0.819-0.501l0.82,0.447c-0.264,0.583-0.867,0.921-1.632,0.921
				C404.143,107.324,403.296,106.544,403.296,105.447z"/>
		</g>
		<g>
			<path style="fill:#263238;" d="M414.758,105.976c0,0.82-0.65,1.294-1.897,1.294h-2.452v-4.742h2.317
				c1.186,0,1.795,0.494,1.795,1.233c0,0.474-0.244,0.84-0.63,1.043C414.419,104.973,414.758,105.379,414.758,105.976z
				 M411.499,103.354v1.118h1.091c0.535,0,0.827-0.19,0.827-0.563c0-0.373-0.292-0.556-0.827-0.556H411.499z M413.654,105.86
				c0-0.4-0.305-0.589-0.874-0.589h-1.281v1.172h1.281C413.349,106.443,413.654,106.267,413.654,105.86z"/>
			<path style="fill:#263238;" d="M415.248,105.447c0-1.098,0.847-1.877,2.033-1.877c0.765,0,1.368,0.332,1.632,0.928l-0.82,0.441
				c-0.196-0.346-0.487-0.502-0.819-0.502c-0.535,0-0.956,0.373-0.956,1.01c0,0.637,0.42,1.009,0.956,1.009
				c0.332,0,0.623-0.149,0.819-0.501l0.82,0.447c-0.264,0.583-0.867,0.921-1.632,0.921
				C416.094,107.324,415.248,106.544,415.248,105.447z"/>
			<path style="fill:#263238;" d="M419.205,105.447c0-1.098,0.847-1.877,2.032-1.877c0.766,0,1.369,0.332,1.633,0.928l-0.819,0.441
				c-0.197-0.346-0.488-0.502-0.82-0.502c-0.536,0-0.956,0.373-0.956,1.01c0,0.637,0.42,1.009,0.956,1.009
				c0.332,0,0.623-0.149,0.82-0.501l0.819,0.447c-0.264,0.583-0.867,0.921-1.633,0.921
				C420.052,107.324,419.205,106.544,419.205,105.447z"/>
		</g>
	</g>
</g>
<g id="Character">
	<g style="opacity:0.5;">
		<path style="fill:#FFFFFF;" d="M412.001,293.129c0,0.622-0.504,1.126-1.126,1.126c-0.622,0-1.126-0.504-1.126-1.126
			s0.504-1.126,1.126-1.126C411.497,292.003,412.001,292.507,412.001,293.129z"/>
		<path style="fill:#FFFFFF;" d="M412.001,296.522c0,0.622-0.504,1.126-1.126,1.126c-0.622,0-1.126-0.504-1.126-1.126
			s0.504-1.126,1.126-1.126C411.497,295.397,412.001,295.901,412.001,296.522z"/>
		<path style="fill:#FFFFFF;" d="M412.001,299.916c0,0.622-0.504,1.126-1.126,1.126c-0.622,0-1.126-0.504-1.126-1.126
			s0.504-1.126,1.126-1.126C411.497,298.79,412.001,299.294,412.001,299.916z"/>
	</g>
	<g>
		<g>
			<g>
				<g>
					<path style="fill:#FFC3BD;" d="M239.555,224.004c0,0-17.432,1.899-25.344,0.295c-7.912-1.604-15.417-14.729-15.417-14.729
						l8.523-5.49l9.69,12.505l22.17,2.027l5.995-4.908l6.305,1.512c0,0,0.143,7.852-2.543,8.27
						C246.248,223.905,239.555,224.004,239.555,224.004z"/>
					<path style="fill:#407BFF;" d="M196.623,190.164c0,0,5.244-0.126,10.823,8.708c1.883,2.982,2.587,4.736,3.15,6.227
						c0.751,1.99-3.052,4.368-5.794,6.137c-2.132,1.375-4.389,2.846-5.718,2.63c0,0-1.546-1.88-2.668-4.556
						C194.109,203.811,191.688,189.932,196.623,190.164z"/>
					<path style="opacity:0.2;" d="M195.43,206.796l2.415-5.913l1.751-1.437c0,0,3.809,7.305,3.523,12.921
						c-2.955,1.81-4.743,1.615-6.702-3.057C196.119,208.605,195.782,207.749,195.43,206.796z"/>
					<path style="fill:#407BFF;" d="M200.02,191.254c0,0-0.178,8.086-0.677,12.21c-0.62,5.165-2.057,9.598-6.179,17.002
						c-4.93,8.854-10.443,18.856-10.443,18.856l-31.648-13.115c0,0,5.314-12.63,8.485-24.507c1.079-4.046,1.908-8.011,2.194-11.343
						c0.196-2.303,0.612-4.185,1.192-5.694c2.505-6.443,8.171-6.283,13.832-4.481c-0.002,0.117-0.005,0.245,0.004,0.373
						c0.121,4.625,5.479,12.518,6.989,13.108c1.893,0.745,7.788-2.497,7.864-6.89c-0.006-0.095-0.002-0.181-0.008-0.276
						C195.105,188.177,200.02,191.254,200.02,191.254z"/>
					<polygon style="opacity:0.9;fill:#FFFFFF;" points="180.475,179.363 174.02,179.603 169.923,186.706 175.881,187.65 
						183.056,195.338 192.632,193.364 196.909,194.402 195.462,187.746 188.633,182.608 					"/>
					<path style="fill:#FFC3BD;" d="M191.633,186.771c-0.076,4.394-5.971,7.636-7.864,6.89c-1.51-0.59-6.868-8.483-6.989-13.108
						c1.009,0.113,2.188-0.095,3.235-1.156c2.652-3.162,4.302-8.844,5.05-12.431l5.19,10.45c-1.346,1.838-1.869,4.344-1.237,6.283
						C189.056,183.782,189.264,185.281,191.633,186.771z"/>
					<path style="opacity:0.1;" d="M188.983,174.857l1.272,2.561c-0.785,1.067-1.278,2.364-1.436,3.645
						c-3.202-3.304-3.921-8.938-3.921-8.938L188.983,174.857z"/>
					<path style="opacity:0.2;" d="M168.942,187.666c0,0-3.783,7.861-9.384,14.034c1.079-4.046,1.908-8.011,2.194-11.343
						c0.196-2.303,0.612-4.185,1.192-5.694l3.26-0.774L168.942,187.666z"/>
					<path style="fill:#FFC3BD;" d="M151.992,186.381c0,0-10.293,8.113-13.395,11.179c-4.621,4.566-16.887,19.75-16.887,19.75
						l-7.804,4.986l0.346,5.126l4.011,2.391c1.237,0.737,2.838,0.319,3.557-0.929l4.418-7.677c0,0,11.383-11.906,15.632-15.367
						c3.591-2.926,15.392-10.315,15.392-10.315L151.992,186.381z"/>
					<path style="fill:#407BFF;" d="M170.965,179.106c0,0-6.641-3.14-12.363,0.39c-5.722,3.53-8.977,4.211-7.377,9.166
						c1.173,3.631,5.67,10.864,5.67,10.864C160.714,197.96,173.7,184.177,170.965,179.106z"/>
					<path style="fill:#FFC3BD;" d="M154.674,391.359c0.174,6.798,0.339,12.181,0.339,12.181l7.583,0.351
						c0,0,0.413-4.631,1.023-11.731L154.674,391.359z"/>
					<g>
						<path style="fill:#407BFF;" d="M164.687,402.809c-0.088-0.016-0.156-0.079-0.173-0.159c-0.016-0.081,0.026-0.163,0.104-0.205
							c0.139-0.074,3.308-1.755,4.822-1.388c0.282,0.064,0.525,0.227,0.676,0.453c0.203,0.251,0.208,0.593,0.015,0.853
							c-0.375,0.446-1.541,0.645-2.669,0.656C166.531,403.023,165.602,402.953,164.687,402.809z M165.383,402.539
							c1.688,0.175,3.976,0.141,4.398-0.402c0.061-0.067,0.118-0.186-0.041-0.429c-0.087-0.145-0.242-0.244-0.421-0.271
							c-0.134-0.033-0.272-0.048-0.411-0.045C167.667,401.57,166.471,401.958,165.383,402.539z"/>
						<path style="fill:#407BFF;" d="M164.573,402.799c-0.065-0.038-0.102-0.106-0.096-0.177c0.012-0.104,0.26-2.341,1.417-3.219
							c0.333-0.259,0.765-0.384,1.197-0.346c0.592,0.049,0.776,0.32,0.798,0.545c0.191,0.93-1.993,2.746-3.079,3.196
							c-0.028,0.013-0.06,0.016-0.09,0.008C164.672,402.82,164.619,402.818,164.573,402.799z M166.947,399.43
							c-0.272,0-0.536,0.09-0.743,0.253c-0.678,0.72-1.101,1.611-1.211,2.551c1.126-0.618,2.558-2.036,2.504-2.597
							c-0.016-0.05-0.041-0.192-0.427-0.219L166.947,399.43L166.947,399.43z"/>
						<path style="fill:#263238;" d="M163.763,401.658l-9.038-0.065c-0.373,0.003-0.697,0.242-0.78,0.576l-1.808,7.374
							c-0.166,0.653,0.278,1.299,0.991,1.442c0.092,0.018,0.185,0.028,0.279,0.028c3.569-0.09,5.88-0.141,10.324-0.176
							c5.244-0.047,3.912,0.538,10.078,0.561c3.715,0.011,4.404-3.852,2.83-4.028C169.432,406.607,164.544,401.621,163.763,401.658z
							"/>
					</g>
					<path style="fill:#407BFF;" d="M148.444,231.132l1.954-4.991c0.133-0.641,0.426-1.046,1.029-0.791l31.631,13.36
						c0.58,0.245,0.665,0.543,0.344,1.084l-1.721,5.799c0,0-4.295,54.789-6.381,73.046c-2.127,18.61-10.486,74.41-10.486,74.41
						c-0.052,0.412-0.422,0.709-0.835,0.67l-9.448-0.884c-0.369-0.035-0.661-0.325-0.695-0.694
						c-0.425-4.681-2.352-34.312-0.782-55.471c0.561-7.559,2.672-13.728,3.249-17.91c0.637-4.616-1.031-7.57-2.348-18.489
						C151.474,279.709,147.98,247.269,148.444,231.132z"/>
					<path style="opacity:0.7;" d="M148.444,231.132l1.954-4.991c0.133-0.641,0.426-1.046,1.029-0.791l31.631,13.36
						c0.58,0.245,0.665,0.543,0.344,1.084l-1.721,5.799c0,0-4.295,54.789-6.381,73.046c-2.127,18.61-10.486,74.41-10.486,74.41
						c-0.052,0.412-0.422,0.709-0.835,0.67l-9.448-0.884c-0.369-0.035-0.661-0.325-0.695-0.694
						c-0.425-4.681-2.352-34.312-0.782-55.471c0.561-7.559,2.672-13.728,3.249-17.91c0.637-4.616-1.031-7.57-2.348-18.489
						C151.474,279.709,147.98,247.269,148.444,231.132z"/>
					<path style="opacity:0.5;" d="M153.954,300.27c-0.829-6.876-1.772-15.081-2.642-23.559l8.243-16.324l3.527-9.543l4.283,5.071
						c0,0-4.962,29.639-12.829,48.581C154.34,303.227,154.143,301.839,153.954,300.27z"/>
					<path style="fill:#FFC3BD;" d="M87.734,369.828c-3.534,5.811-5.824,9.626-5.824,9.626l6.187,4.399c0,0,2.854-3.671,7.209-9.311
						L87.734,369.828z"/>
					<g>
						<path style="fill:#407BFF;" d="M90.741,382.621c-0.063-0.063-0.083-0.157-0.051-0.24c0.034-0.083,0.116-0.136,0.206-0.132
							c0.159,0.007,3.769,0.185,4.813,1.342c0.197,0.212,0.304,0.492,0.297,0.782c0.022,0.34-0.172,0.656-0.485,0.79
							c-0.571,0.206-1.656-0.244-2.598-0.846C92.147,383.816,91.418,383.249,90.741,382.621z M91.476,382.751
							c1.3,1.076,3.22,2.284,3.887,2.015c0.09-0.028,0.206-0.106,0.215-0.415c0.012-0.18-0.059-0.355-0.192-0.476
							c-0.092-0.103-0.198-0.192-0.315-0.264C93.938,383.1,92.718,382.809,91.476,382.751z"/>
						<path style="fill:#407BFF;" d="M90.652,382.55c-0.032-0.07-0.023-0.152,0.023-0.214c0.071-0.089,1.579-2.004,3.051-2.182
							c0.427-0.057,0.859,0.063,1.196,0.331c0.463,0.365,0.458,0.714,0.345,0.932c-0.383,0.956-3.255,1.437-4.418,1.26
							c-0.031-0.003-0.059-0.018-0.079-0.041C90.722,382.623,90.68,382.592,90.652,382.55z M94.585,380.749
							c-0.226-0.148-0.497-0.208-0.765-0.171c-0.983,0.292-1.852,0.88-2.491,1.682c1.295,0.044,3.31-0.479,3.592-1.023
							c0.016-0.055,0.078-0.198-0.228-0.432L94.585,380.749L94.585,380.749z"/>
						<path style="fill:#263238;" d="M90.098,380.827l-6.536-4.26c-0.312-0.199-0.72-0.156-0.983,0.105l-5.795,5.779
							c-0.518,0.509-0.525,1.341-0.016,1.859c0.065,0.066,0.138,0.126,0.215,0.177c3.017,1.853,4.033,2.36,7.744,4.736
							c4.383,2.8,2.936,2.614,8.043,5.978c3.079,2.023,5.901-1.143,4.695-2.158C91.924,388.437,90.768,381.217,90.098,380.827z"/>
					</g>
					<path style="fill:#407BFF;" d="M172.825,242.626c0,0-20.744,58.301-31.213,75.962c-9.297,15.684-45.875,56.694-45.875,56.694
						c-0.558,0.689-1.56,0.817-2.273,0.29l-5.75-4.254c-0.656-0.485-0.862-1.375-0.483-2.097
						c2.966-5.664,15.507-29.228,26.845-44.776c4.523-6.202,8.967-10.82,11.076-14.216c2.78-4.478,1.829-7.86,3.457-19.887
						c3.026-22.364,9.628-55.404,22.641-61.499L172.825,242.626z"/>
					<path style="opacity:0.7;" d="M172.825,242.626c0,0-20.744,58.301-31.213,75.962c-9.297,15.684-45.479,56.933-45.479,56.933
						c-0.558,0.689-1.56,0.817-2.273,0.29l-6.513-4.765c-0.444-0.328-0.584-0.928-0.329-1.418
						c2.522-4.833,15.423-29.228,27.058-45.184c4.523-6.202,8.967-10.82,11.076-14.216c2.78-4.478,1.829-7.86,3.457-19.887
						c3.026-22.364,9.628-55.404,22.641-61.499L172.825,242.626z"/>
				</g>
				<g>
					<path style="fill:#263238;" d="M197.204,149.198c0.424,2.821,3.773,4.368,5.325,7.574c0,0,4.425-3.811,1.326-6.678
						C200.757,147.227,196.538,144.778,197.204,149.198z"/>
					<path style="fill:#263238;" d="M202.605,152.49c3.405,1.42,5.156,8.132,1.002,10.623c0.067,0.359,0.309,0.591,0.536,0.46
						c4.724-2.734,2.959-11.295-1.167-14.254L202.605,152.49z"/>
					<g>
						<path style="fill:#263238;" d="M194.468,155.201c-3.163,3.048-5.049,7.381-5.124,11.772
							c-0.075,4.391-2.146,7.291,0.911,10.445c10.552,2.835,10.639,4.117,12.155,4.819c0.678-2.138,0.868-8.276-1.875-10.365
							c-2.009-1.531-3.913-3.223-4.534-5.671c-0.83-3.272-1.116-6.682-0.842-10.047L194.468,155.201z"/>
					</g>
					<path style="fill:#FFC3BD;" d="M182.061,160.264c0.615,7.633,0.708,10.879,4.676,14.737c5.92,5.788,15.193,3.378,16.835-4.286
						c1.514-6.892,0.261-18.209-7.301-21.124c-5.367-2.106-11.426,0.538-13.532,5.905
						C182.144,157.01,181.912,158.643,182.061,160.264z"/>
					<path style="fill:#ED893E;" d="M199.289,163.051c0.509,1.438,1.215,2.798,2.097,4.041c-0.657,0.437-1.471,0.565-2.23,0.351
						L199.289,163.051z"/>
					<path style="fill:#263238;" d="M196.653,170.87c0.295,0.036,0.592,0.048,0.889,0.036c0.095-0.001,0.172-0.079,0.171-0.174
						c0-0.003,0-0.006,0-0.01c-0.006-0.097-0.084-0.175-0.181-0.179c-1.57,0.071-3.078-0.618-4.052-1.852
						c-0.057-0.084-0.172-0.105-0.256-0.048c-0.084,0.057-0.105,0.172-0.048,0.256C194.024,169.995,195.276,170.705,196.653,170.87z
						"/>
					<path style="fill:#263238;" d="M183.289,147.358c-5.655,4.134-10.93,17.966,1.234,24.952c2.583-1.227,0.887-4.018,0.304-8.351
						c-0.381-2.834,4.608-7.731,7.013-9.28c2.404-1.548,4.852-4.029,7.494-2.935c0.691,0.286,1.403,0.701,2.136,0.552
						c2.404-0.487,1.646-2.032,0.76-3.195c-1.302-1.71-3.427-2.837-5.429-3.531C192.361,144.032,187.124,144.554,183.289,147.358z"
						/>
					<g>
						<path style="fill:#263238;" d="M190.218,155.791c-0.197,1.482-0.771,2.947-1.681,4.133c-0.943,1.231-2.492,1.879-4.032,2.063
							c-1.54,0.184-3.096-0.044-4.629-0.272c2.135,1.189,4.758,1.467,7.094,0.75c2.336-0.717,4.352-2.419,5.452-4.601
							c0.545-1.08,0.868-2.258,1.343-3.371c0.475-1.113,1.141-2.2,2.168-2.84c1.027-0.641,2.478-0.716,3.385,0.086
							c0.426-0.054,0.862-0.307,1.005-0.711c0.143-0.405,0.039-0.886-0.258-1.196C198.648,149.703,191.272,147.847,190.218,155.791z
							"/>
					</g>
					<g>
						<path style="fill:#263238;" d="M180.55,150.195c-3.163,3.048-6.174,8.82-6.249,13.212c-0.075,4.391,1.662,8.786,4.719,11.94
							c3.294,0.437,7.478,2.1,10.234,4.381c1.184-3.239-1.02-9.333-3.763-11.423c-2.009-1.531-3.913-3.223-4.534-5.671
							c-0.83-3.272-1.116-6.682-0.842-10.047L180.55,150.195z"/>
					</g>
					<path style="fill:#FFC3BD;" d="M179.896,166.06c0.549,1.376,1.618,2.48,2.975,3.074c1.808,0.763,2.93-0.796,2.666-2.627
						c-0.263-1.65-1.514-4.039-3.433-4.026c-1.386,0.035-2.481,1.188-2.446,2.574C179.667,165.403,179.748,165.745,179.896,166.06z"
						/>
					<path style="fill:#263238;" d="M191.605,159.42c0.147,0.053,0.312,0.002,0.404-0.124c1.044-1.378,3.202-1.287,3.221-1.284
						c0.201,0.008,0.37-0.148,0.378-0.349s-0.148-0.37-0.349-0.378c-0.108-0.01-2.577-0.07-3.839,1.588
						c-0.123,0.158-0.095,0.385,0.063,0.509c0.001,0,0.001,0.001,0.002,0.001L191.605,159.42z"/>
					<path style="fill:#263238;" d="M203.245,158.837c0.123,0.037,0.257,0.004,0.349-0.087c0.147-0.136,0.156-0.365,0.021-0.512
						c-0.001-0.002-0.003-0.003-0.004-0.005c-0.797-0.868-1.964-1.297-3.133-1.151c-0.199,0.036-0.331,0.227-0.296,0.426
						c0.036,0.199,0.227,0.332,0.426,0.295l0,0l0,0c0.926-0.107,1.847,0.243,2.467,0.938
						C203.124,158.784,203.182,158.816,203.245,158.837z"/>
					<g>
						<path style="fill:#263238;" d="M202.251,161.609c0.421,0.017,0.737,0.568,0.704,1.215c-0.034,0.648-0.409,1.163-0.828,1.138
							c-0.419-0.025-0.737-0.568-0.704-1.215C201.445,162.114,201.83,161.592,202.251,161.609z"/>
						<path style="fill:#263238;" d="M203.637,161.281l-1.581,0.372C202.774,162.455,203.637,161.281,203.637,161.281z"/>
					</g>
					<g>
						<path style="fill:#263238;" d="M194.88,161.434c0.421,0.017,0.737,0.568,0.704,1.215c-0.034,0.647-0.409,1.163-0.828,1.138
							c-0.419-0.025-0.737-0.568-0.704-1.215C194.074,161.939,194.459,161.417,194.88,161.434z"/>
						<path style="fill:#263238;" d="M196.266,161.106l-1.581,0.372C195.403,162.28,196.266,161.106,196.266,161.106z"/>
					</g>
				</g>
			</g>
		</g>
		<polygon style="fill:#407BFF;" points="150.945,228.17 156.985,230.691 156.105,232.796 150.076,230.274 		"/>
		
			<rect x="159.991" y="230.43" transform="matrix(0.3852 -0.9228 0.9228 0.3852 -116.5615 292.3425)" style="fill:#407BFF;" width="2.281" height="6.449"/>
		<polygon style="fill:#407BFF;" points="174.488,237.987 178.533,239.674 177.663,241.778 173.608,240.092 		"/>
		
			<rect x="179.451" y="240.804" transform="matrix(0.3859 -0.9225 0.9225 0.3859 -112.1404 315.0615)" style="fill:#407BFF;" width="2.281" height="1.925"/>
	</g>
</g>
<g id="Attached_Files">
	<g>
		<g>
			<path style="fill:#263238;" d="M256.562,208.775c-5.053,0-9.165-4.111-9.165-9.165v-17.763c0-0.536,0.434-0.97,0.97-0.97
				s0.97,0.434,0.97,0.97v17.763c0,3.984,3.241,7.225,7.225,7.225c3.984,0,7.225-3.241,7.225-7.225v-18.684
				c0-0.536,0.434-0.97,0.97-0.97s0.97,0.434,0.97,0.97v18.684C265.726,204.664,261.615,208.775,256.562,208.775z"/>
		</g>
		<g>
			<g>
				<path style="fill:#407BFF;" d="M300.156,249.529l-43.658,6.824c-2.372,0.371-4.596-1.252-4.966-3.624l-9.974-63.812
					c-0.371-2.372,1.252-4.596,3.624-4.966l43.658-6.824c2.372-0.371,4.596,1.252,4.966,3.624l9.974,63.812
					C304.151,246.934,302.528,249.158,300.156,249.529z"/>
				<path style="opacity:0.6;fill:#FFFFFF;" d="M300.156,249.529l-43.658,6.824c-2.372,0.371-4.596-1.252-4.966-3.624l-9.974-63.812
					c-0.371-2.372,1.252-4.596,3.624-4.966l43.658-6.824c2.372-0.371,4.596,1.252,4.966,3.624l9.974,63.812
					C304.151,246.934,302.528,249.158,300.156,249.529z"/>
				<g>
					<g>
						<path style="opacity:0.2;" d="M290.431,211.271l-34.995,5.642c-0.545,0.088-0.915,0.601-0.827,1.145l0.052,0.32
							c0.088,0.545,0.601,0.915,1.145,0.827l34.995-5.642c0.545-0.088,0.915-0.601,0.827-1.145l-0.052-0.32
							C291.488,211.553,290.975,211.183,290.431,211.271z"/>
						<path style="opacity:0.2;" d="M291.94,220.635l-34.995,5.642c-0.545,0.088-0.915,0.601-0.827,1.146l0.052,0.32
							c0.088,0.545,0.601,0.915,1.146,0.827l34.995-5.642c0.545-0.088,0.915-0.601,0.827-1.146l-0.052-0.32
							C292.998,220.918,292.485,220.548,291.94,220.635z"/>
						<path style="opacity:0.2;" d="M293.45,230l-34.995,5.642c-0.545,0.088-0.915,0.601-0.827,1.145l0.052,0.32
							c0.088,0.545,0.601,0.915,1.146,0.827l34.995-5.642c0.545-0.088,0.915-0.601,0.828-1.145l-0.052-0.32
							C294.508,230.283,293.995,229.912,293.45,230z"/>
					</g>
				</g>
			</g>
			<path style="fill:#407BFF;" d="M296.328,252.182l-43.896,5.075c-2.385,0.276-4.542-1.434-4.818-3.819l-7.418-64.16
				c-0.276-2.385,1.434-4.542,3.819-4.818l43.896-5.075c2.385-0.276,4.542,1.434,4.818,3.819l7.418,64.16
				C300.422,249.749,298.713,251.906,296.328,252.182z"/>
			<g>
				<path style="opacity:0.7;fill:#FFFFFF;" d="M296.328,252.182l-43.896,5.075c-2.385,0.276-4.542-1.434-4.818-3.819l-7.418-64.16
					c-0.276-2.385,1.434-4.542,3.819-4.818l43.896-5.075c2.385-0.276,4.542,1.434,4.818,3.819l7.418,64.16
					C300.422,249.749,298.713,251.906,296.328,252.182z"/>
				<g>
					<g>
						<path style="opacity:0.2;" d="M288.138,213.566l-35.193,4.24c-0.548,0.066-0.938,0.564-0.872,1.111l0.039,0.322
							c0.066,0.548,0.564,0.938,1.112,0.872l35.192-4.24c0.548-0.066,0.938-0.564,0.872-1.111l-0.039-0.322
							C289.183,213.891,288.686,213.5,288.138,213.566z"/>
						<path style="opacity:0.2;" d="M289.272,222.984l-35.193,4.24c-0.548,0.066-0.938,0.564-0.872,1.112l0.039,0.322
							c0.066,0.548,0.564,0.939,1.112,0.872l35.193-4.24c0.548-0.066,0.938-0.564,0.872-1.112l-0.039-0.322
							C290.318,223.308,289.82,222.918,289.272,222.984z"/>
						<path style="opacity:0.2;" d="M290.407,232.401l-35.192,4.24c-0.548,0.066-0.939,0.564-0.872,1.111l0.039,0.322
							c0.066,0.548,0.564,0.938,1.111,0.872l35.192-4.24c0.548-0.066,0.939-0.564,0.873-1.111l-0.039-0.322
							C291.452,232.726,290.955,232.335,290.407,232.401z"/>
					</g>
				</g>
			</g>
		</g>
		<g>
			<g>
				<path style="fill:#407BFF;" d="M296.53,199.286l0.098,54.315c0.001,0.699-0.565,1.267-1.264,1.269l-50.223,0.09
					c-0.699,0.001-1.267-0.565-1.269-1.264l-0.127-70.647c-0.001-0.699,0.565-1.267,1.264-1.269l33.84-0.061L296.53,199.286z"/>
			</g>
			<g style="opacity:0.8;">
				<path style="fill:#FFFFFF;" d="M296.53,199.286l0.098,54.315c0.001,0.699-0.565,1.267-1.264,1.269l-50.223,0.09
					c-0.699,0.001-1.267-0.565-1.269-1.264l-0.127-70.647c-0.001-0.699,0.565-1.267,1.264-1.269l33.84-0.061L296.53,199.286z"/>
			</g>
			<path style="fill:#263238;" d="M287.889,215.661l-35.447,0.17c-0.552,0.003-0.997,0.452-0.994,1.004l0.002,0.324
				c0.003,0.552,0.452,0.997,1.004,0.994l35.447-0.17c0.552-0.003,0.997-0.452,0.994-1.004l-0.002-0.324
				C288.891,216.104,288.441,215.658,287.889,215.661z"/>
			<path style="fill:#263238;" d="M287.935,225.146l-35.447,0.17c-0.552,0.003-0.997,0.452-0.994,1.004l0.002,0.324
				c0.003,0.552,0.452,0.997,1.004,0.994l35.447-0.17c0.552-0.003,0.997-0.452,0.994-1.004l-0.002-0.324
				C288.936,225.589,288.487,225.144,287.935,225.146z"/>
			<path style="fill:#263238;" d="M287.98,234.632l-35.447,0.17c-0.552,0.003-0.997,0.452-0.994,1.004l0.002,0.324
				c0.003,0.552,0.452,0.997,1.004,0.994l35.447-0.17c0.552-0.003,0.997-0.452,0.994-1.004l-0.002-0.324
				C288.982,235.074,288.532,234.629,287.98,234.632z"/>
			<path style="fill:#407BFF;" d="M278.876,181.681l0.03,16.383c0.001,0.699,0.569,1.265,1.269,1.264l16.333-0.029L278.876,181.681z
				"/>
			<path style="opacity:0.9;fill:#FFFFFF;" d="M278.876,181.681l0.03,16.383c0.001,0.699,0.569,1.265,1.269,1.264l16.333-0.029
				L278.876,181.681z"/>
			<path style="opacity:0.5;fill:#FFFFFF;" d="M287.889,215.661l-35.447,0.17c-0.552,0.003-0.997,0.452-0.994,1.004l0.002,0.324
				c0.003,0.552,0.452,0.997,1.004,0.994l35.447-0.17c0.552-0.003,0.997-0.452,0.994-1.004l-0.002-0.324
				C288.891,216.104,288.441,215.658,287.889,215.661z"/>
			<path style="opacity:0.5;fill:#FFFFFF;" d="M287.935,225.146l-35.447,0.17c-0.552,0.003-0.997,0.452-0.994,1.004l0.002,0.324
				c0.003,0.552,0.452,0.997,1.004,0.994l35.447-0.17c0.552-0.003,0.997-0.452,0.994-1.004l-0.002-0.324
				C288.936,225.589,288.487,225.144,287.935,225.146z"/>
			<path style="opacity:0.5;fill:#FFFFFF;" d="M287.98,234.632l-35.447,0.17c-0.552,0.003-0.997,0.452-0.994,1.004l0.002,0.324
				c0.003,0.552,0.452,0.997,1.004,0.994l35.447-0.17c0.552-0.003,0.997-0.452,0.994-1.004l-0.002-0.324
				C288.982,235.074,288.532,234.629,287.98,234.632z"/>
		</g>
		<g>
			<g>
				<g>
					<path style="fill:#263238;" d="M260.669,182.843h-1.94v-3.328c0-2.59-2.107-4.696-4.696-4.696s-4.696,2.107-4.696,4.696v2.358
						h-1.94v-2.358c0-3.659,2.977-6.636,6.636-6.636c3.659,0,6.636,2.977,6.636,6.636V182.843z"/>
				</g>
				<g>
					<path style="fill:#263238;" d="M256.515,200.465c-2.291,0-4.154-1.864-4.154-4.154v-15.359c0-0.536,0.434-0.97,0.97-0.97
						s0.97,0.434,0.97,0.97v15.359c0,1.221,0.993,2.214,2.214,2.214c1.221,0,2.214-0.993,2.214-2.214v-14.438
						c0-0.536,0.434-0.97,0.97-0.97c0.536,0,0.97,0.434,0.97,0.97v14.438C260.669,198.602,258.806,200.465,256.515,200.465z"/>
				</g>
			</g>
		</g>
	</g>
</g>
</svg>
